<mxfile host="app.diagrams.net" modified="2022-04-08T00:50:20.152Z" agent="5.0 (Macintosh; Intel Mac OS X 10_15_7) AppleWebKit/537.36 (KHTML, like Gecko) Chrome/99.0.4844.83 Safari/537.36" etag="Qe5OYFGufiYisWXxOGZd" version="17.1.3" type="github" pages="3">
  <diagram id="prtHgNgQTEPvFCAcTncT" name="Page-1">
    <mxGraphModel dx="946" dy="646" grid="1" gridSize="10" guides="1" tooltips="1" connect="1" arrows="1" fold="1" page="1" pageScale="1" pageWidth="827" pageHeight="1169" math="0" shadow="0">
      <root>
        <mxCell id="0" />
        <mxCell id="1" parent="0" />
        <mxCell id="dNxyNK7c78bLwvsdeMH5-19" value="Pool" style="swimlane;html=1;childLayout=stackLayout;resizeParent=1;resizeParentMax=0;horizontal=0;startSize=20;horizontalStack=0;" parent="1" vertex="1">
          <mxGeometry x="120" y="120" width="450" height="360" as="geometry">
            <mxRectangle x="120" y="120" width="30" height="50" as="alternateBounds" />
          </mxGeometry>
        </mxCell>
        <mxCell id="dNxyNK7c78bLwvsdeMH5-27" value="" style="edgeStyle=orthogonalEdgeStyle;rounded=0;orthogonalLoop=1;jettySize=auto;html=1;dashed=1;endArrow=none;endFill=0;" parent="dNxyNK7c78bLwvsdeMH5-19" source="dNxyNK7c78bLwvsdeMH5-24" target="dNxyNK7c78bLwvsdeMH5-26" edge="1">
          <mxGeometry relative="1" as="geometry" />
        </mxCell>
        <mxCell id="dNxyNK7c78bLwvsdeMH5-31" style="edgeStyle=orthogonalEdgeStyle;rounded=0;orthogonalLoop=1;jettySize=auto;html=1;endArrow=classic;endFill=1;" parent="dNxyNK7c78bLwvsdeMH5-19" source="dNxyNK7c78bLwvsdeMH5-28" target="dNxyNK7c78bLwvsdeMH5-30" edge="1">
          <mxGeometry relative="1" as="geometry" />
        </mxCell>
        <mxCell id="dNxyNK7c78bLwvsdeMH5-35" style="edgeStyle=orthogonalEdgeStyle;rounded=0;orthogonalLoop=1;jettySize=auto;html=1;endArrow=classic;endFill=1;" parent="dNxyNK7c78bLwvsdeMH5-19" source="dNxyNK7c78bLwvsdeMH5-28" target="dNxyNK7c78bLwvsdeMH5-34" edge="1">
          <mxGeometry relative="1" as="geometry" />
        </mxCell>
        <mxCell id="dNxyNK7c78bLwvsdeMH5-38" style="edgeStyle=orthogonalEdgeStyle;rounded=0;orthogonalLoop=1;jettySize=auto;html=1;endArrow=classic;endFill=1;" parent="dNxyNK7c78bLwvsdeMH5-19" source="dNxyNK7c78bLwvsdeMH5-26" target="dNxyNK7c78bLwvsdeMH5-36" edge="1">
          <mxGeometry relative="1" as="geometry">
            <Array as="points">
              <mxPoint x="180" y="340" />
              <mxPoint x="400" y="340" />
            </Array>
          </mxGeometry>
        </mxCell>
        <mxCell id="dNxyNK7c78bLwvsdeMH5-20" value="Lane 1" style="swimlane;html=1;startSize=20;horizontal=0;" parent="dNxyNK7c78bLwvsdeMH5-19" vertex="1">
          <mxGeometry x="20" width="430" height="120" as="geometry" />
        </mxCell>
        <mxCell id="dNxyNK7c78bLwvsdeMH5-25" value="" style="edgeStyle=orthogonalEdgeStyle;rounded=0;orthogonalLoop=1;jettySize=auto;html=1;" parent="dNxyNK7c78bLwvsdeMH5-20" source="dNxyNK7c78bLwvsdeMH5-23" target="dNxyNK7c78bLwvsdeMH5-24" edge="1">
          <mxGeometry relative="1" as="geometry" />
        </mxCell>
        <mxCell id="dNxyNK7c78bLwvsdeMH5-23" value="" style="ellipse;whiteSpace=wrap;html=1;" parent="dNxyNK7c78bLwvsdeMH5-20" vertex="1">
          <mxGeometry x="40" y="40" width="40" height="40" as="geometry" />
        </mxCell>
        <mxCell id="dNxyNK7c78bLwvsdeMH5-24" value="" style="rounded=0;whiteSpace=wrap;html=1;fontFamily=Helvetica;fontSize=12;fontColor=#000000;align=center;" parent="dNxyNK7c78bLwvsdeMH5-20" vertex="1">
          <mxGeometry x="120" y="30" width="80" height="60" as="geometry" />
        </mxCell>
        <mxCell id="dNxyNK7c78bLwvsdeMH5-33" value="" style="edgeStyle=orthogonalEdgeStyle;rounded=0;orthogonalLoop=1;jettySize=auto;html=1;endArrow=classic;endFill=1;" parent="dNxyNK7c78bLwvsdeMH5-20" source="dNxyNK7c78bLwvsdeMH5-30" target="dNxyNK7c78bLwvsdeMH5-32" edge="1">
          <mxGeometry relative="1" as="geometry" />
        </mxCell>
        <mxCell id="dNxyNK7c78bLwvsdeMH5-30" value="" style="rounded=0;whiteSpace=wrap;html=1;fontFamily=Helvetica;fontSize=12;fontColor=#000000;align=center;" parent="dNxyNK7c78bLwvsdeMH5-20" vertex="1">
          <mxGeometry x="240" y="30" width="80" height="60" as="geometry" />
        </mxCell>
        <mxCell id="dNxyNK7c78bLwvsdeMH5-32" value="" style="ellipse;whiteSpace=wrap;html=1;" parent="dNxyNK7c78bLwvsdeMH5-20" vertex="1">
          <mxGeometry x="360" y="40" width="40" height="40" as="geometry" />
        </mxCell>
        <mxCell id="dNxyNK7c78bLwvsdeMH5-21" value="Lane 2" style="swimlane;html=1;startSize=20;horizontal=0;" parent="dNxyNK7c78bLwvsdeMH5-19" vertex="1">
          <mxGeometry x="20" y="120" width="430" height="120" as="geometry" />
        </mxCell>
        <mxCell id="dNxyNK7c78bLwvsdeMH5-29" value="" style="edgeStyle=orthogonalEdgeStyle;rounded=0;orthogonalLoop=1;jettySize=auto;html=1;endArrow=classic;endFill=1;" parent="dNxyNK7c78bLwvsdeMH5-21" source="dNxyNK7c78bLwvsdeMH5-26" target="dNxyNK7c78bLwvsdeMH5-28" edge="1">
          <mxGeometry relative="1" as="geometry" />
        </mxCell>
        <mxCell id="dNxyNK7c78bLwvsdeMH5-26" value="" style="rounded=0;whiteSpace=wrap;html=1;fontFamily=Helvetica;fontSize=12;fontColor=#000000;align=center;" parent="dNxyNK7c78bLwvsdeMH5-21" vertex="1">
          <mxGeometry x="120" y="30" width="80" height="60" as="geometry" />
        </mxCell>
        <mxCell id="dNxyNK7c78bLwvsdeMH5-28" value="" style="rhombus;whiteSpace=wrap;html=1;fontFamily=Helvetica;fontSize=12;fontColor=#000000;align=center;" parent="dNxyNK7c78bLwvsdeMH5-21" vertex="1">
          <mxGeometry x="260" y="40" width="40" height="40" as="geometry" />
        </mxCell>
        <mxCell id="dNxyNK7c78bLwvsdeMH5-22" value="Lane 3" style="swimlane;html=1;startSize=20;horizontal=0;" parent="dNxyNK7c78bLwvsdeMH5-19" vertex="1">
          <mxGeometry x="20" y="240" width="430" height="120" as="geometry">
            <mxRectangle x="20" y="240" width="430" height="20" as="alternateBounds" />
          </mxGeometry>
        </mxCell>
        <mxCell id="dNxyNK7c78bLwvsdeMH5-37" value="" style="edgeStyle=orthogonalEdgeStyle;rounded=0;orthogonalLoop=1;jettySize=auto;html=1;endArrow=classic;endFill=1;" parent="dNxyNK7c78bLwvsdeMH5-22" source="dNxyNK7c78bLwvsdeMH5-34" target="dNxyNK7c78bLwvsdeMH5-36" edge="1">
          <mxGeometry relative="1" as="geometry" />
        </mxCell>
        <mxCell id="dNxyNK7c78bLwvsdeMH5-34" value="" style="rounded=0;whiteSpace=wrap;html=1;fontFamily=Helvetica;fontSize=12;fontColor=#000000;align=center;" parent="dNxyNK7c78bLwvsdeMH5-22" vertex="1">
          <mxGeometry x="240" y="20" width="80" height="60" as="geometry" />
        </mxCell>
        <mxCell id="dNxyNK7c78bLwvsdeMH5-36" value="" style="rhombus;whiteSpace=wrap;html=1;fontFamily=Helvetica;fontSize=12;fontColor=#000000;align=center;" parent="dNxyNK7c78bLwvsdeMH5-22" vertex="1">
          <mxGeometry x="360" y="30" width="40" height="40" as="geometry" />
        </mxCell>
      </root>
    </mxGraphModel>
  </diagram>
  <diagram id="jSfoPk2qc9v5_1uQAuXB" name="function">
    <mxGraphModel dx="823" dy="562" grid="1" gridSize="10" guides="1" tooltips="1" connect="1" arrows="1" fold="1" page="1" pageScale="1" pageWidth="2339" pageHeight="3300" math="0" shadow="0">
      <root>
        <mxCell id="Nnm8WDqMuxHNNKsXmkyH-0" />
        <mxCell id="Nnm8WDqMuxHNNKsXmkyH-1" parent="Nnm8WDqMuxHNNKsXmkyH-0" />
        <mxCell id="Nnm8WDqMuxHNNKsXmkyH-58" style="edgeStyle=orthogonalEdgeStyle;rounded=0;orthogonalLoop=1;jettySize=auto;html=1;exitX=0.5;exitY=1;exitDx=0;exitDy=0;fontSize=18;endArrow=none;endFill=0;fontFamily=华文宋体;" edge="1" parent="Nnm8WDqMuxHNNKsXmkyH-1" source="Nnm8WDqMuxHNNKsXmkyH-47" target="Nnm8WDqMuxHNNKsXmkyH-48">
          <mxGeometry relative="1" as="geometry" />
        </mxCell>
        <mxCell id="Nnm8WDqMuxHNNKsXmkyH-59" style="edgeStyle=orthogonalEdgeStyle;rounded=0;orthogonalLoop=1;jettySize=auto;html=1;exitX=0.5;exitY=1;exitDx=0;exitDy=0;fontSize=18;endArrow=none;endFill=0;fontFamily=华文宋体;" edge="1" parent="Nnm8WDqMuxHNNKsXmkyH-1" source="Nnm8WDqMuxHNNKsXmkyH-47" target="Nnm8WDqMuxHNNKsXmkyH-49">
          <mxGeometry relative="1" as="geometry" />
        </mxCell>
        <mxCell id="Nnm8WDqMuxHNNKsXmkyH-60" style="edgeStyle=orthogonalEdgeStyle;rounded=0;orthogonalLoop=1;jettySize=auto;html=1;exitX=0.5;exitY=1;exitDx=0;exitDy=0;fontSize=18;endArrow=none;endFill=0;fontFamily=华文宋体;" edge="1" parent="Nnm8WDqMuxHNNKsXmkyH-1" source="Nnm8WDqMuxHNNKsXmkyH-47" target="Nnm8WDqMuxHNNKsXmkyH-50">
          <mxGeometry relative="1" as="geometry" />
        </mxCell>
        <mxCell id="Nnm8WDqMuxHNNKsXmkyH-61" style="edgeStyle=orthogonalEdgeStyle;rounded=0;orthogonalLoop=1;jettySize=auto;html=1;exitX=0.5;exitY=1;exitDx=0;exitDy=0;entryX=0.5;entryY=0;entryDx=0;entryDy=0;fontSize=18;endArrow=none;endFill=0;fontFamily=华文宋体;" edge="1" parent="Nnm8WDqMuxHNNKsXmkyH-1" source="Nnm8WDqMuxHNNKsXmkyH-47" target="Nnm8WDqMuxHNNKsXmkyH-51">
          <mxGeometry relative="1" as="geometry" />
        </mxCell>
        <mxCell id="Nnm8WDqMuxHNNKsXmkyH-62" style="edgeStyle=orthogonalEdgeStyle;rounded=0;orthogonalLoop=1;jettySize=auto;html=1;exitX=0.5;exitY=1;exitDx=0;exitDy=0;entryX=0.5;entryY=0;entryDx=0;entryDy=0;fontSize=18;endArrow=none;endFill=0;fontFamily=华文宋体;" edge="1" parent="Nnm8WDqMuxHNNKsXmkyH-1" source="Nnm8WDqMuxHNNKsXmkyH-47" target="Nnm8WDqMuxHNNKsXmkyH-52">
          <mxGeometry relative="1" as="geometry" />
        </mxCell>
        <mxCell id="Nnm8WDqMuxHNNKsXmkyH-63" style="edgeStyle=orthogonalEdgeStyle;rounded=0;orthogonalLoop=1;jettySize=auto;html=1;exitX=0.5;exitY=1;exitDx=0;exitDy=0;entryX=0.5;entryY=0;entryDx=0;entryDy=0;fontSize=18;endArrow=none;endFill=0;fontFamily=华文宋体;" edge="1" parent="Nnm8WDqMuxHNNKsXmkyH-1" source="Nnm8WDqMuxHNNKsXmkyH-47" target="Nnm8WDqMuxHNNKsXmkyH-53">
          <mxGeometry relative="1" as="geometry" />
        </mxCell>
        <mxCell id="Nnm8WDqMuxHNNKsXmkyH-64" style="edgeStyle=orthogonalEdgeStyle;rounded=0;orthogonalLoop=1;jettySize=auto;html=1;exitX=0.5;exitY=1;exitDx=0;exitDy=0;fontSize=18;endArrow=none;endFill=0;fontFamily=华文宋体;" edge="1" parent="Nnm8WDqMuxHNNKsXmkyH-1" source="Nnm8WDqMuxHNNKsXmkyH-47" target="Nnm8WDqMuxHNNKsXmkyH-54">
          <mxGeometry relative="1" as="geometry" />
        </mxCell>
        <mxCell id="Nnm8WDqMuxHNNKsXmkyH-65" style="edgeStyle=orthogonalEdgeStyle;rounded=0;orthogonalLoop=1;jettySize=auto;html=1;exitX=0.5;exitY=1;exitDx=0;exitDy=0;fontSize=18;endArrow=none;endFill=0;fontFamily=华文宋体;" edge="1" parent="Nnm8WDqMuxHNNKsXmkyH-1" source="Nnm8WDqMuxHNNKsXmkyH-47" target="Nnm8WDqMuxHNNKsXmkyH-55">
          <mxGeometry relative="1" as="geometry" />
        </mxCell>
        <mxCell id="Nnm8WDqMuxHNNKsXmkyH-66" style="edgeStyle=orthogonalEdgeStyle;rounded=0;orthogonalLoop=1;jettySize=auto;html=1;exitX=0.5;exitY=1;exitDx=0;exitDy=0;fontSize=18;endArrow=none;endFill=0;fontFamily=华文宋体;" edge="1" parent="Nnm8WDqMuxHNNKsXmkyH-1" source="Nnm8WDqMuxHNNKsXmkyH-47" target="Nnm8WDqMuxHNNKsXmkyH-56">
          <mxGeometry relative="1" as="geometry" />
        </mxCell>
        <mxCell id="Nnm8WDqMuxHNNKsXmkyH-67" style="edgeStyle=orthogonalEdgeStyle;rounded=0;orthogonalLoop=1;jettySize=auto;html=1;exitX=0.5;exitY=1;exitDx=0;exitDy=0;entryX=0.5;entryY=0;entryDx=0;entryDy=0;fontSize=18;endArrow=none;endFill=0;fontFamily=华文宋体;" edge="1" parent="Nnm8WDqMuxHNNKsXmkyH-1" source="Nnm8WDqMuxHNNKsXmkyH-47" target="Nnm8WDqMuxHNNKsXmkyH-57">
          <mxGeometry relative="1" as="geometry" />
        </mxCell>
        <mxCell id="Nnm8WDqMuxHNNKsXmkyH-47" value="配置管理系统" style="rounded=0;whiteSpace=wrap;html=1;fontSize=20;fontColor=#000000;fontFamily=华文宋体;" vertex="1" parent="Nnm8WDqMuxHNNKsXmkyH-1">
          <mxGeometry x="376" y="480" width="164" height="40" as="geometry" />
        </mxCell>
        <mxCell id="Nnm8WDqMuxHNNKsXmkyH-48" value="用&lt;br&gt;户&lt;br&gt;管&lt;br&gt;理" style="rounded=0;whiteSpace=wrap;html=1;fontSize=19;fontColor=#000000;fontFamily=华文宋体;" vertex="1" parent="Nnm8WDqMuxHNNKsXmkyH-1">
          <mxGeometry x="120" y="600" width="40" height="130" as="geometry" />
        </mxCell>
        <mxCell id="Nnm8WDqMuxHNNKsXmkyH-49" value="角&lt;br&gt;色&lt;br&gt;管&lt;br&gt;理" style="rounded=0;whiteSpace=wrap;html=1;fontSize=19;fontColor=#000000;fontFamily=华文宋体;" vertex="1" parent="Nnm8WDqMuxHNNKsXmkyH-1">
          <mxGeometry x="189" y="600" width="40" height="130" as="geometry" />
        </mxCell>
        <mxCell id="Nnm8WDqMuxHNNKsXmkyH-50" value="权&lt;br&gt;限&lt;br&gt;管&lt;br&gt;理" style="rounded=0;whiteSpace=wrap;html=1;fontSize=19;fontColor=#000000;fontFamily=华文宋体;" vertex="1" parent="Nnm8WDqMuxHNNKsXmkyH-1">
          <mxGeometry x="260" y="600" width="40" height="130" as="geometry" />
        </mxCell>
        <mxCell id="Nnm8WDqMuxHNNKsXmkyH-51" value="应&lt;br&gt;用&lt;br&gt;管&lt;br&gt;理" style="rounded=0;whiteSpace=wrap;html=1;fontSize=19;fontColor=#000000;fontFamily=华文宋体;" vertex="1" parent="Nnm8WDqMuxHNNKsXmkyH-1">
          <mxGeometry x="330" y="600" width="40" height="130" as="geometry" />
        </mxCell>
        <mxCell id="Nnm8WDqMuxHNNKsXmkyH-52" value="配置文件管理" style="rounded=0;whiteSpace=wrap;html=1;fontSize=18;fontColor=#000000;fontFamily=华文宋体;" vertex="1" parent="Nnm8WDqMuxHNNKsXmkyH-1">
          <mxGeometry x="400" y="600" width="40" height="130" as="geometry" />
        </mxCell>
        <mxCell id="Nnm8WDqMuxHNNKsXmkyH-53" value="配&lt;br&gt;置&lt;br&gt;项&lt;br&gt;管&lt;br&gt;理" style="rounded=0;whiteSpace=wrap;html=1;fontSize=19;fontColor=#000000;fontFamily=华文宋体;" vertex="1" parent="Nnm8WDqMuxHNNKsXmkyH-1">
          <mxGeometry x="470" y="600" width="40" height="130" as="geometry" />
        </mxCell>
        <mxCell id="Nnm8WDqMuxHNNKsXmkyH-54" value="配&lt;br&gt;置&lt;br&gt;发&lt;br&gt;布" style="rounded=0;whiteSpace=wrap;html=1;fontSize=19;fontColor=#000000;fontFamily=华文宋体;" vertex="1" parent="Nnm8WDqMuxHNNKsXmkyH-1">
          <mxGeometry x="540" y="600" width="40" height="130" as="geometry" />
        </mxCell>
        <mxCell id="Nnm8WDqMuxHNNKsXmkyH-55" value="配&lt;br&gt;置&lt;br&gt;回&lt;br&gt;滚" style="rounded=0;whiteSpace=wrap;html=1;fontSize=19;fontColor=#000000;fontFamily=华文宋体;" vertex="1" parent="Nnm8WDqMuxHNNKsXmkyH-1">
          <mxGeometry x="610" y="600" width="40" height="130" as="geometry" />
        </mxCell>
        <mxCell id="Nnm8WDqMuxHNNKsXmkyH-56" value="灰&lt;br&gt;度&lt;br&gt;管&lt;br&gt;理" style="rounded=0;whiteSpace=wrap;html=1;fontSize=19;fontColor=#000000;fontFamily=华文宋体;" vertex="1" parent="Nnm8WDqMuxHNNKsXmkyH-1">
          <mxGeometry x="680" y="600" width="40" height="130" as="geometry" />
        </mxCell>
        <mxCell id="Nnm8WDqMuxHNNKsXmkyH-57" value="配&lt;br&gt;置&lt;br&gt;审&lt;br&gt;计" style="rounded=0;whiteSpace=wrap;html=1;fontSize=19;fontColor=#000000;fontFamily=华文宋体;" vertex="1" parent="Nnm8WDqMuxHNNKsXmkyH-1">
          <mxGeometry x="750" y="600" width="40" height="130" as="geometry" />
        </mxCell>
      </root>
    </mxGraphModel>
  </diagram>
  <diagram id="Q4SE-ySflgdqu54gy3pr" name="Page-3">
    <mxGraphModel dx="946" dy="646" grid="1" gridSize="10" guides="1" tooltips="1" connect="1" arrows="1" fold="1" page="1" pageScale="1" pageWidth="2339" pageHeight="3300" math="0" shadow="0">
      <root>
        <mxCell id="edouV_f3OtMdX3rmoKNi-0" />
        <mxCell id="edouV_f3OtMdX3rmoKNi-1" parent="edouV_f3OtMdX3rmoKNi-0" />
        <mxCell id="NwqrG20D2iSckZvJugih-0" style="edgeStyle=orthogonalEdgeStyle;rounded=0;orthogonalLoop=1;jettySize=auto;html=1;exitX=0.5;exitY=1;exitDx=0;exitDy=0;entryX=0.5;entryY=0;entryDx=0;entryDy=0;fontSize=18;endArrow=none;endFill=0;fontFamily=华文宋体;" edge="1" parent="edouV_f3OtMdX3rmoKNi-1" source="NwqrG20D2iSckZvJugih-4" target="NwqrG20D2iSckZvJugih-5">
          <mxGeometry relative="1" as="geometry" />
        </mxCell>
        <mxCell id="NwqrG20D2iSckZvJugih-1" style="edgeStyle=orthogonalEdgeStyle;rounded=0;orthogonalLoop=1;jettySize=auto;html=1;exitX=0.5;exitY=1;exitDx=0;exitDy=0;entryX=0.5;entryY=0;entryDx=0;entryDy=0;fontSize=18;endArrow=none;endFill=0;fontFamily=华文宋体;" edge="1" parent="edouV_f3OtMdX3rmoKNi-1" source="NwqrG20D2iSckZvJugih-4" target="NwqrG20D2iSckZvJugih-6">
          <mxGeometry relative="1" as="geometry" />
        </mxCell>
        <mxCell id="NwqrG20D2iSckZvJugih-2" style="edgeStyle=orthogonalEdgeStyle;rounded=0;orthogonalLoop=1;jettySize=auto;html=1;exitX=0.5;exitY=1;exitDx=0;exitDy=0;entryX=0.5;entryY=0;entryDx=0;entryDy=0;fontSize=18;endArrow=none;endFill=0;fontFamily=华文宋体;" edge="1" parent="edouV_f3OtMdX3rmoKNi-1" source="NwqrG20D2iSckZvJugih-4" target="NwqrG20D2iSckZvJugih-7">
          <mxGeometry relative="1" as="geometry" />
        </mxCell>
        <mxCell id="NwqrG20D2iSckZvJugih-3" style="edgeStyle=orthogonalEdgeStyle;rounded=0;orthogonalLoop=1;jettySize=auto;html=1;exitX=0.5;exitY=1;exitDx=0;exitDy=0;entryX=0.5;entryY=0;entryDx=0;entryDy=0;fontSize=18;endArrow=none;endFill=0;fontFamily=华文宋体;" edge="1" parent="edouV_f3OtMdX3rmoKNi-1" source="NwqrG20D2iSckZvJugih-4" target="NwqrG20D2iSckZvJugih-8">
          <mxGeometry relative="1" as="geometry" />
        </mxCell>
        <mxCell id="NwqrG20D2iSckZvJugih-4" value="客户端" style="rounded=0;whiteSpace=wrap;html=1;fontSize=20;fontColor=#000000;fontFamily=华文宋体;" vertex="1" parent="edouV_f3OtMdX3rmoKNi-1">
          <mxGeometry x="365" y="740" width="100" height="40" as="geometry" />
        </mxCell>
        <mxCell id="NwqrG20D2iSckZvJugih-5" value="连&lt;br&gt;接&lt;br&gt;管&lt;br&gt;理" style="rounded=0;whiteSpace=wrap;html=1;fontSize=19;fontColor=#000000;fontFamily=华文宋体;" vertex="1" parent="edouV_f3OtMdX3rmoKNi-1">
          <mxGeometry x="290" y="860" width="40" height="130" as="geometry" />
        </mxCell>
        <mxCell id="NwqrG20D2iSckZvJugih-6" value="配&lt;br&gt;置&lt;br&gt;拉&lt;br&gt;取" style="rounded=0;whiteSpace=wrap;html=1;fontSize=19;fontColor=#000000;fontFamily=华文宋体;" vertex="1" parent="edouV_f3OtMdX3rmoKNi-1">
          <mxGeometry x="360" y="860" width="40" height="130" as="geometry" />
        </mxCell>
        <mxCell id="NwqrG20D2iSckZvJugih-7" value="配&lt;br&gt;置&lt;br&gt;监&lt;br&gt;听" style="rounded=0;whiteSpace=wrap;html=1;fontSize=19;fontColor=#000000;fontFamily=华文宋体;" vertex="1" parent="edouV_f3OtMdX3rmoKNi-1">
          <mxGeometry x="430" y="860" width="40" height="130" as="geometry" />
        </mxCell>
        <mxCell id="NwqrG20D2iSckZvJugih-8" value="缓&lt;br&gt;存&lt;br&gt;管&lt;br&gt;理" style="rounded=0;whiteSpace=wrap;html=1;fontSize=19;fontColor=#000000;fontFamily=华文宋体;" vertex="1" parent="edouV_f3OtMdX3rmoKNi-1">
          <mxGeometry x="500" y="860" width="40" height="130" as="geometry" />
        </mxCell>
      </root>
    </mxGraphModel>
  </diagram>
</mxfile>
